<svg width="98" height="42" viewBox="0 0 98 42" fill="none" xmlns="http://www.w3.org/2000/svg">
<path fill-rule="evenodd" clip-rule="evenodd" d="M96.6715 19.0912C97.2758 19.4988 97.6565 20.0519 97.7297 20.6288C97.8029 21.2058 97.5627 21.7593 97.0619 22.1677L74.4042 40.645C73.9034 41.0534 73.1831 41.2831 72.4017 41.2837C71.6203 41.2843 70.8418 41.0556 70.2375 40.6481C69.6332 40.2405 69.2526 39.6874 69.1794 39.1104C69.1062 38.5335 69.3464 37.9799 69.8472 37.5716L87.9469 22.8113L3.39337 22.8763C3.00597 22.8766 2.61522 22.8205 2.24342 22.7113C1.87162 22.6021 1.52606 22.4419 1.22646 22.2398C0.926863 22.0378 0.6791 21.7978 0.497317 21.5337C0.315534 21.2695 0.203289 20.9863 0.166994 20.7003C0.130699 20.4142 0.171064 20.1309 0.285783 19.8666C0.400502 19.6022 0.587328 19.3619 0.835596 19.1595C1.08386 18.957 1.38871 18.7963 1.73273 18.6866C2.07675 18.5769 2.45321 18.5202 2.8406 18.52L87.3949 18.4611L65.5531 3.73009C64.9488 3.32253 64.5682 2.76943 64.495 2.19248C64.4218 1.61552 64.662 1.06197 65.1627 0.653595C65.6635 0.24522 66.3838 0.0154782 67.1652 0.0149049C67.9466 0.014334 68.7251 0.24298 69.3294 0.650544L96.6715 19.0912Z" fill="#222222"/>
</svg>
