<svg width="31" height="74" viewBox="0 0 31 74" fill="none" xmlns="http://www.w3.org/2000/svg">
<path fill-rule="evenodd" clip-rule="evenodd" d="M16.5634 72.9347C16.2563 73.3974 15.8414 73.6958 15.4101 73.7642C14.9788 73.8327 14.5664 73.6657 14.2636 73.2999L0.561567 56.748C0.258733 56.3822 0.0903052 55.8476 0.0933311 55.2618C0.096357 54.6759 0.270591 54.0869 0.577705 53.6242C0.884817 53.1616 1.29965 52.8632 1.73095 52.7947C2.16225 52.7262 2.57468 52.8932 2.87751 53.2591L13.8231 66.4812L14.1483 3.09009C14.1498 2.79965 14.1934 2.50537 14.2766 2.22405C14.3598 1.94273 14.481 1.67987 14.6333 1.45049C14.7855 1.22111 14.9659 1.0297 15.164 0.887187C15.3621 0.744673 15.5742 0.653846 15.788 0.619894C16.0018 0.585942 16.2133 0.60953 16.4102 0.689308C16.6072 0.769087 16.7859 0.903495 16.936 1.08486C17.0861 1.26622 17.2048 1.49099 17.2853 1.74633C17.3657 2.00166 17.4063 2.28257 17.4048 2.57301L17.0751 65.9649L28.1754 49.2422C28.4825 48.7795 28.8973 48.4811 29.3286 48.4126C29.7599 48.3441 30.1723 48.5112 30.4752 48.877C30.778 49.2428 30.9464 49.7775 30.9434 50.3633C30.9404 50.9491 30.7661 51.5381 30.459 52.0008L16.5634 72.9347Z" fill="#222222"/>
</svg>
