<svg width="320" height="54" viewBox="0 0 320 54" fill="none" xmlns="http://www.w3.org/2000/svg">
<path d="M2.6323 0.667997L12.4633 10.586V53.216H10.3753L0.544296 43.385H2.6323V0.667997ZM65.9289 0.667997L75.8469 10.586V53.216H73.7589L63.8409 43.298H65.9289V0.667997ZM32.7819 4.148L42.6999 16.676V53.216H40.6119L30.6939 43.298H32.7819V4.148ZM63.8409 37.295V39.905L32.7819 0.667997C35.9719 3.394 38.9299 6.41 41.6559 9.716C44.4399 12.964 47.1369 16.212 49.7469 19.46L63.8409 37.295ZM111.653 42.95C115.365 42.95 118.874 42.051 122.18 40.253C125.486 38.397 128.067 35.845 129.923 32.597L139.754 42.515C137.898 45.763 135.346 48.286 132.098 50.084C128.85 51.882 125.37 52.781 121.658 52.781C118.816 52.781 116.264 52.317 114.002 51.389C111.798 50.461 109.739 49.243 107.825 47.735C105.911 46.227 104.084 44.545 102.344 42.689C100.604 40.833 98.8065 38.977 96.9505 37.121C98.9225 38.977 101.184 40.427 103.736 41.471C106.288 42.457 108.927 42.95 111.653 42.95ZM103.91 39.209C100.43 37.643 97.6465 35.294 95.5585 32.162C93.4705 28.972 92.4265 25.463 92.4265 21.635C92.4265 19.025 92.9195 16.56 93.9055 14.24C94.9495 11.92 96.3125 9.89 97.9945 8.15C99.7345 6.41 101.735 5.047 103.997 4.061C106.317 3.017 108.782 2.495 111.392 2.495C114.582 2.495 117.569 3.22 120.353 4.67C123.195 6.12 125.544 8.121 127.4 10.673H129.923C129.459 9.977 128.995 9.31 128.531 8.672C128.067 7.976 127.545 7.338 126.965 6.758C129.169 8.962 131.431 11.166 133.751 13.37C136.071 15.574 138.072 17.981 139.754 20.591H137.318C136.1 19.315 134.94 18.184 133.838 17.198C132.736 16.154 131.576 15.284 130.358 14.588C129.198 13.834 127.922 13.283 126.53 12.935C125.138 12.529 123.514 12.326 121.658 12.326C118.99 12.326 116.467 12.819 114.089 13.805C111.769 14.791 109.71 16.154 107.912 17.894C106.172 19.634 104.78 21.693 103.736 24.071C102.75 26.391 102.257 28.885 102.257 31.553C102.257 34.105 102.808 36.657 103.91 39.209ZM199.826 10.586V36.338C199.826 38.89 199.333 41.21 198.347 43.298C197.419 45.328 196.172 47.097 194.606 48.605C193.04 50.055 191.213 51.186 189.125 51.998C187.095 52.81 185.007 53.216 182.861 53.216C180.715 53.216 178.569 52.81 176.423 51.998C174.277 51.128 172.334 49.765 170.594 47.909L161.111 38.426C162.619 39.992 164.388 41.21 166.418 42.08C168.448 42.892 170.652 43.298 173.03 43.298C175.35 43.298 177.525 42.863 179.555 41.993C181.643 41.065 183.441 39.847 184.949 38.339C186.515 36.831 187.733 35.062 188.603 33.032C189.531 30.944 189.995 28.74 189.995 26.42V0.667997L199.826 10.586ZM168.68 40.601C167.172 40.137 165.78 39.441 164.504 38.513C163.228 37.585 162.126 36.512 161.198 35.294C160.27 34.076 159.545 32.713 159.023 31.205C158.501 29.639 158.24 28.044 158.24 26.42V0.667997L168.071 10.586V36.338C168.071 37.846 168.274 39.267 168.68 40.601ZM228.535 12.674L218.617 2.843H238.801C241.411 2.843 243.47 3.713 244.978 5.453C246.544 7.193 247.327 9.31 247.327 11.804C247.327 12.21 247.298 12.5 247.24 12.674H228.535ZM228.535 31.988L218.617 22.07C221.285 22.07 224.04 22.07 226.882 22.07C229.782 22.012 232.566 21.983 235.234 21.983H238.714C240.106 21.983 241.382 22.273 242.542 22.853C243.76 23.375 244.775 24.1 245.587 25.028C246.457 25.898 247.124 26.942 247.588 28.16C248.11 29.378 248.371 30.654 248.371 31.988H228.535ZM260.377 41.993C260.377 43.501 260.058 44.951 259.42 46.343C258.84 47.677 258.028 48.866 256.984 49.91C255.94 50.896 254.722 51.708 253.33 52.346C251.996 52.926 250.575 53.216 249.067 53.216H228.535L218.617 43.298H239.236C240.86 43.298 242.339 43.008 243.673 42.428C245.065 41.79 246.254 40.949 247.24 39.905C248.284 38.803 249.067 37.556 249.589 36.164C250.169 34.714 250.459 33.206 250.459 31.64C250.459 29.378 249.85 27.29 248.632 25.376C247.414 23.404 245.79 21.925 243.76 20.939C245.616 20.011 247.008 18.706 247.936 17.024C248.922 15.284 249.415 13.399 249.415 11.369C249.415 10.209 249.241 9.107 248.893 8.063C248.603 6.961 248.11 5.946 247.414 5.018L256.288 13.718C257.39 14.82 258.173 16.038 258.637 17.372C259.101 18.706 259.333 20.127 259.333 21.635C259.333 23.491 258.869 25.202 257.941 26.768C257.013 28.334 255.766 29.581 254.2 30.509C255.128 31.437 255.969 32.307 256.723 33.119C257.535 33.873 258.202 34.685 258.724 35.555C259.246 36.367 259.652 37.295 259.942 38.339C260.232 39.383 260.377 40.601 260.377 41.993ZM319.505 21.722C319.505 23.172 319.244 24.535 318.722 25.811C318.2 27.029 317.475 28.102 316.547 29.03C315.619 29.9 314.517 30.596 313.241 31.118C312.023 31.64 310.689 31.901 309.239 31.901H306.803L319.505 53.216H317.069C315.387 51.592 313.734 49.968 312.11 48.344C310.486 46.72 308.833 45.067 307.151 43.385H309.674C307.586 39.789 305.44 36.251 303.236 32.771C301.09 29.233 298.973 25.666 296.885 22.07H299.408C300.916 22.07 302.279 21.809 303.497 21.287C304.773 20.707 305.875 19.953 306.803 19.025C307.731 18.039 308.427 16.908 308.891 15.632C309.413 14.298 309.674 12.906 309.674 11.456C309.674 9.078 308.978 6.961 307.586 5.105L316.46 13.805C317.62 14.907 318.403 16.125 318.809 17.459C319.273 18.793 319.505 20.214 319.505 21.722ZM289.229 12.761L279.398 2.93H298.973C301.583 2.93 303.642 3.8 305.15 5.54C306.716 7.222 307.499 9.31 307.499 11.804C307.499 11.978 307.47 12.152 307.412 12.326C307.412 12.5 307.412 12.645 307.412 12.761H289.229ZM279.572 22.157C281.486 22.157 282.965 22.157 284.009 22.157C285.111 22.099 286.097 22.07 286.967 22.07C287.895 22.07 288.881 22.07 289.925 22.07C291.027 22.07 292.535 22.07 294.449 22.07C295.435 23.752 296.421 25.405 297.407 27.029C298.393 28.653 299.379 30.277 300.365 31.901L289.49 31.988V53.216H287.315L277.484 43.385H279.572V22.157Z" fill="#F5F5F5"/>
</svg>
