<?xml version="1.0" encoding="utf-8"?><svg xmlns="http://www.w3.org/2000/svg" xmlns:xlink="http://www.w3.org/1999/xlink" width="1346" height="797" preserveAspectRatio="xMidYMid" viewBox="0 0 1346 797" style="z-index:1;margin-right:-2px;display:block;background-repeat-y:initial;background-repeat-x:initial;background-color:rgb(241, 242, 243);animation-play-state:paused" ><g transform="translate(673,398.5) scale(1,1) translate(-673,-398.5)" style="transform:matrix(1, 0, 0, 1, 0, 0);animation-play-state:paused" ><g transform="translate(1736.5486466576792,-426.4728942169062) scale(100)" opacity="0.4" style="transform:matrix(100, 0, 0, 100, 1736.55, -426.473);opacity:0.4;animation-play-state:paused" ><path d="M13.0562 0 C13.0562 1.6152 12.814002992986701 5.533095767807374 12.006402992986702 6.9319 S7.926904232192627 10.499400876890387 6.528100000000002 11.307000876890388 S1.6152000000000009 13.863800000000001 8.489129147009539e-16 13.863800000000001 S-5.129295767807372 12.114600876890387 -6.528099999999998 11.307000876890388 S-11.198802992986698 8.33070423219263 -12.006402992986699 6.931900000000005 S-13.0562 1.6152000000000015 -13.0562 1.5989233539027674e-15 S-12.814002992986703 -5.533095767807372 -12.006402992986704 -6.931899999999997 S-7.926904232192632 -10.499400876890386 -6.5281000000000065 -11.307000876890386 S-1.6152000000000024 -13.863800000000001 -2.5467387441028615e-15 -13.863800000000001 S5.129295767807365 -12.114600876890393 6.528099999999991 -11.307000876890394 S11.198802992986698 -8.330704232192632 12.006402992986699 -6.931900000000007 S13.0562 -1.615200000000003 13.0562 -3.1978467078055348e-15" fill="#000000" stroke-width="0" transform="matrix(1,0,0,1,0,0)" style="transform:matrix(1, 0, 0, 1, 0, 0);animation-play-state:paused" ></path></g>
<g transform="translate(1949.2583759892152,-591.4674730602875) scale(100)" opacity="0.4" style="transform:matrix(100, 0, 0, 100, 1949.26, -591.467);opacity:0.4;animation-play-state:paused" ><path d="M15.667440000000001 0 C15.667440000000001 1.93824 15.376803591584045 6.639714921368849 14.407683591584044 8.31828 S9.512285078631152 12.599281052268465 7.833720000000002 13.568401052268465 S1.938240000000001 16.636560000000003 1.0186954976411448e-15 16.636560000000003 S-6.155154921368847 14.537521052268467 -7.833719999999997 13.568401052268467 S-13.43856359158404 9.996845078631157 -14.40768359158404 8.318280000000007 S-15.667440000000001 1.938240000000002 -15.667440000000001 1.9187080246833208e-15 S-15.376803591584046 -6.639714921368846 -14.407683591584046 -8.318279999999996 S-9.512285078631157 -12.599281052268463 -7.833720000000008 -13.568401052268463 S-1.938240000000003 -16.636560000000003 -3.056086492923434e-15 -16.636560000000003 S6.155154921368839 -14.53752105226847 7.83371999999999 -13.568401052268472 S13.438563591584039 -9.996845078631159 14.407683591584039 -8.318280000000009 S15.667440000000001 -1.9382400000000037 15.667440000000001 -3.8374160493666416e-15" fill="#272727" stroke-width="0" transform="matrix(1,0,0,1,0,0)" style="transform:matrix(1, 0, 0, 1, 0, 0);animation-play-state:paused" ></path></g>
<g transform="translate(2459.761726384901,-987.4544622844023) scale(100)" opacity="0.4" style="transform:matrix(100, 0, 0, 100, 2459.76, -987.454);opacity:0.4;animation-play-state:paused" ><path d="M21.934415999999995 0 C21.934415999999995 2.7135359999999995 21.527525028217656 9.295600889916386 20.170757028217658 11.645591999999997 S13.31719911008361 17.638993473175848 10.967208 18.995761473175847 S2.713536000000001 23.291183999999998 1.4261736966976022e-15 23.291183999999998 S-8.617216889916381 20.35252947317585 -10.967207999999992 18.99576147317585 S-18.813989028217648 13.995583110083615 -20.17075702821765 11.645592000000006 S-21.934415999999995 2.713536000000002 -21.934415999999995 2.6861912345566485e-15 S-21.527525028217656 -9.295600889916381 -20.170757028217658 -11.645591999999992 S-13.317199110083616 -17.63899347317584 -10.967208000000007 -18.995761473175843 S-2.713536000000004 -23.291183999999998 -4.278521090092806e-15 -23.291183999999998 S8.617216889916373 -20.352529473175856 10.967207999999983 -18.995761473175858 S18.813989028217645 -13.995583110083619 20.170757028217647 -11.64559200000001 S21.934415999999995 -2.713536000000005 21.934415999999995 -5.372382469113297e-15" fill="#494949" stroke-width="0" transform="matrix(1,0,0,1,0,0)" style="transform:matrix(1, 0, 0, 1, 0, 0);animation-play-state:paused" ></path></g></g></svg>