<svg width="408" height="68" viewBox="0 0 408 68" fill="none" xmlns="http://www.w3.org/2000/svg">
<path d="M3.22051 0.403996L15.7635 13.058V67.448H13.0995L0.556506 54.905H3.22051V0.403996ZM83.9782 0.403996L96.6322 13.058V67.448H93.9682L81.3142 54.794H83.9782V0.403996ZM41.6872 4.844L54.3412 20.828V67.448H51.6772L39.0232 54.794H41.6872V4.844ZM81.3142 47.135V50.465L41.6872 0.403996C45.7572 3.882 49.5312 7.73 53.0092 11.948C56.5612 16.092 60.0022 20.236 63.3322 24.38L81.3142 47.135ZM142.317 54.35C147.053 54.35 151.53 53.203 155.748 50.909C159.966 48.541 163.259 45.285 165.627 41.141L178.17 53.795C175.802 57.939 172.546 61.158 168.402 63.452C164.258 65.746 159.818 66.893 155.082 66.893C151.456 66.893 148.2 66.301 145.314 65.117C142.502 63.933 139.875 62.379 137.433 60.455C134.991 58.531 132.66 56.385 130.44 54.017C128.22 51.649 125.926 49.281 123.558 46.913C126.074 49.281 128.96 51.131 132.216 52.463C135.472 53.721 138.839 54.35 142.317 54.35ZM132.438 49.577C127.998 47.579 124.446 44.582 121.782 40.586C119.118 36.516 117.786 32.039 117.786 27.155C117.786 23.825 118.415 20.68 119.673 17.72C121.005 14.76 122.744 12.17 124.89 9.95C127.11 7.73 129.663 5.991 132.549 4.733C135.509 3.401 138.654 2.735 141.984 2.735C146.054 2.735 149.865 3.66 153.417 5.51C157.043 7.36 160.04 9.913 162.408 13.169H165.627C165.035 12.281 164.443 11.43 163.851 10.616C163.259 9.72799 162.593 8.91399 161.853 8.174C164.665 10.986 167.551 13.798 170.511 16.61C173.471 19.422 176.024 22.493 178.17 25.823H175.062C173.508 24.195 172.028 22.752 170.622 21.494C169.216 20.162 167.736 19.052 166.182 18.164C164.702 17.202 163.074 16.499 161.298 16.055C159.522 15.537 157.45 15.278 155.082 15.278C151.678 15.278 148.459 15.907 145.425 17.165C142.465 18.423 139.838 20.162 137.544 22.382C135.324 24.602 133.548 27.229 132.216 30.263C130.958 33.223 130.329 36.405 130.329 39.809C130.329 43.065 131.032 46.321 132.438 49.577ZM254.812 13.058V45.914C254.812 49.17 254.183 52.13 252.925 54.794C251.741 57.384 250.15 59.641 248.152 61.565C246.154 63.415 243.823 64.858 241.159 65.894C238.569 66.93 235.905 67.448 233.167 67.448C230.429 67.448 227.691 66.93 224.953 65.894C222.215 64.784 219.736 63.045 217.516 60.677L205.417 48.578C207.341 50.576 209.598 52.13 212.188 53.24C214.778 54.276 217.59 54.794 220.624 54.794C223.584 54.794 226.359 54.239 228.949 53.129C231.613 51.945 233.907 50.391 235.831 48.467C237.829 46.543 239.383 44.286 240.493 41.696C241.677 39.032 242.269 36.22 242.269 33.26V0.403996L254.812 13.058ZM215.074 51.353C213.15 50.761 211.374 49.873 209.746 48.689C208.118 47.505 206.712 46.136 205.528 44.582C204.344 43.028 203.419 41.289 202.753 39.365C202.087 37.367 201.754 35.332 201.754 33.26V0.403996L214.297 13.058V45.914C214.297 47.838 214.556 49.651 215.074 51.353ZM291.442 15.722L278.788 3.179H304.54C307.87 3.179 310.497 4.289 312.421 6.509C314.419 8.729 315.418 11.43 315.418 14.612C315.418 15.13 315.381 15.5 315.307 15.722H291.442ZM291.442 40.364L278.788 27.71C282.192 27.71 285.707 27.71 289.333 27.71C293.033 27.636 296.585 27.599 299.989 27.599H304.429C306.205 27.599 307.833 27.969 309.313 28.709C310.867 29.375 312.162 30.3 313.198 31.484C314.308 32.594 315.159 33.926 315.751 35.48C316.417 37.034 316.75 38.662 316.75 40.364H291.442ZM332.068 53.129C332.068 55.053 331.661 56.903 330.847 58.679C330.107 60.381 329.071 61.898 327.739 63.23C326.407 64.488 324.853 65.524 323.077 66.338C321.375 67.078 319.562 67.448 317.638 67.448H291.442L278.788 54.794H305.095C307.167 54.794 309.054 54.424 310.756 53.684C312.532 52.87 314.049 51.797 315.307 50.465C316.639 49.059 317.638 47.468 318.304 45.692C319.044 43.842 319.414 41.918 319.414 39.92C319.414 37.034 318.637 34.37 317.083 31.928C315.529 29.412 313.457 27.525 310.867 26.267C313.235 25.083 315.011 23.418 316.195 21.272C317.453 19.052 318.082 16.647 318.082 14.057C318.082 12.577 317.86 11.171 317.416 9.839C317.046 8.433 316.417 7.138 315.529 5.954L326.851 17.054C328.257 18.46 329.256 20.014 329.848 21.716C330.44 23.418 330.736 25.231 330.736 27.155C330.736 29.523 330.144 31.706 328.96 33.704C327.776 35.702 326.185 37.293 324.187 38.477C325.371 39.661 326.444 40.771 327.406 41.807C328.442 42.769 329.293 43.805 329.959 44.915C330.625 45.951 331.143 47.135 331.513 48.467C331.883 49.799 332.068 51.353 332.068 53.129ZM407.506 27.266C407.506 29.116 407.173 30.855 406.507 32.483C405.841 34.037 404.916 35.406 403.732 36.59C402.548 37.7 401.142 38.588 399.514 39.254C397.96 39.92 396.258 40.253 394.408 40.253H391.3L407.506 67.448H404.398C402.252 65.376 400.143 63.304 398.071 61.232C395.999 59.16 393.89 57.051 391.744 54.905H394.963C392.299 50.317 389.561 45.803 386.749 41.363C384.011 36.849 381.31 32.298 378.646 27.71H381.865C383.789 27.71 385.528 27.377 387.082 26.711C388.71 25.971 390.116 25.009 391.3 23.825C392.484 22.567 393.372 21.124 393.964 19.496C394.63 17.794 394.963 16.018 394.963 14.168C394.963 11.134 394.075 8.433 392.299 6.065L403.621 17.165C405.101 18.571 406.1 20.125 406.618 21.827C407.21 23.529 407.506 25.342 407.506 27.266ZM368.878 15.833L356.335 3.29H381.31C384.64 3.29 387.267 4.4 389.191 6.62C391.189 8.766 392.188 11.43 392.188 14.612C392.188 14.834 392.151 15.056 392.077 15.278C392.077 15.5 392.077 15.685 392.077 15.833H368.878ZM356.557 27.821C358.999 27.821 360.886 27.821 362.218 27.821C363.624 27.747 364.882 27.71 365.992 27.71C367.176 27.71 368.434 27.71 369.766 27.71C371.172 27.71 373.096 27.71 375.538 27.71C376.796 29.856 378.054 31.965 379.312 34.037C380.57 36.109 381.828 38.181 383.086 40.253L369.211 40.364V67.448H366.436L353.893 54.905H356.557V27.821Z" fill="black"/>
</svg>
