<svg width="94" height="18" viewBox="0 0 94 18" fill="none" xmlns="http://www.w3.org/2000/svg">
<path d="M0.997 0.827999L4.048 3.906V17.136H3.4L0.349 14.085H0.997V0.827999ZM19.5608 0.827999L22.6388 3.906V17.136H21.9908L18.9128 14.058H19.5608V0.827999ZM9.27377 1.908L12.3518 5.796V17.136H11.7038L8.62577 14.058H9.27377V1.908ZM18.9128 12.195V13.005L9.27377 0.827999C10.2638 1.674 11.1818 2.61 12.0278 3.636C12.8918 4.644 13.7288 5.652 14.5388 6.66L18.9128 12.195ZM32.6712 13.95C33.8232 13.95 34.9122 13.671 35.9382 13.113C36.9642 12.537 37.7652 11.745 38.3412 10.737L41.3922 13.815C40.8162 14.823 40.0242 15.606 39.0162 16.164C38.0082 16.722 36.9282 17.001 35.7762 17.001C34.8942 17.001 34.1022 16.857 33.4002 16.569C32.7162 16.281 32.0772 15.903 31.4832 15.435C30.8892 14.967 30.3222 14.445 29.7822 13.869C29.2422 13.293 28.6842 12.717 28.1082 12.141C28.7202 12.717 29.4222 13.167 30.2142 13.491C31.0062 13.797 31.8252 13.95 32.6712 13.95ZM30.2682 12.789C29.1882 12.303 28.3242 11.574 27.6762 10.602C27.0282 9.612 26.7042 8.523 26.7042 7.335C26.7042 6.525 26.8572 5.76 27.1632 5.04C27.4872 4.32 27.9102 3.69 28.4322 3.15C28.9722 2.61 29.5932 2.187 30.2952 1.881C31.0152 1.557 31.7802 1.395 32.5902 1.395C33.5802 1.395 34.5072 1.62 35.3712 2.07C36.2532 2.52 36.9822 3.141 37.5582 3.933H38.3412C38.1972 3.717 38.0532 3.51 37.9092 3.312C37.7652 3.096 37.6032 2.898 37.4232 2.718C38.1072 3.402 38.8092 4.086 39.5292 4.77C40.2492 5.454 40.8702 6.201 41.3922 7.011H40.6362C40.2582 6.615 39.8982 6.264 39.5562 5.958C39.2142 5.634 38.8542 5.364 38.4762 5.148C38.1162 4.914 37.7202 4.743 37.2882 4.635C36.8562 4.509 36.3522 4.446 35.7762 4.446C34.9482 4.446 34.1652 4.599 33.4272 4.905C32.7072 5.211 32.0682 5.634 31.5102 6.174C30.9702 6.714 30.5382 7.353 30.2142 8.091C29.9082 8.811 29.7552 9.585 29.7552 10.413C29.7552 11.205 29.9262 11.997 30.2682 12.789ZM58.955 3.906V11.898C58.955 12.69 58.802 13.41 58.496 14.058C58.208 14.688 57.821 15.237 57.335 15.705C56.849 16.155 56.282 16.506 55.634 16.758C55.004 17.01 54.356 17.136 53.69 17.136C53.024 17.136 52.358 17.01 51.692 16.758C51.026 16.488 50.423 16.065 49.883 15.489L46.94 12.546C47.408 13.032 47.957 13.41 48.587 13.68C49.217 13.932 49.901 14.058 50.639 14.058C51.359 14.058 52.034 13.923 52.664 13.653C53.312 13.365 53.87 12.987 54.338 12.519C54.824 12.051 55.202 11.502 55.472 10.872C55.76 10.224 55.904 9.54 55.904 8.82V0.827999L58.955 3.906ZM49.289 13.221C48.821 13.077 48.389 12.861 47.993 12.573C47.597 12.285 47.255 11.952 46.967 11.574C46.679 11.196 46.454 10.773 46.292 10.305C46.13 9.819 46.049 9.324 46.049 8.82V0.827999L49.1 3.906V11.898C49.1 12.366 49.163 12.807 49.289 13.221ZM66.7848 4.554L63.7068 1.503H69.9708C70.7808 1.503 71.4198 1.773 71.8878 2.313C72.3738 2.853 72.6168 3.51 72.6168 4.284C72.6168 4.41 72.6078 4.5 72.5898 4.554H66.7848ZM66.7848 10.548L63.7068 7.47C64.5348 7.47 65.3898 7.47 66.2718 7.47C67.1718 7.452 68.0358 7.443 68.8638 7.443H69.9438C70.3758 7.443 70.7718 7.533 71.1318 7.713C71.5098 7.875 71.8248 8.1 72.0768 8.388C72.3468 8.658 72.5538 8.982 72.6978 9.36C72.8598 9.738 72.9408 10.134 72.9408 10.548H66.7848ZM76.6668 13.653C76.6668 14.121 76.5678 14.571 76.3698 15.003C76.1898 15.417 75.9378 15.786 75.6138 16.11C75.2898 16.416 74.9118 16.668 74.4798 16.866C74.0658 17.046 73.6248 17.136 73.1568 17.136H66.7848L63.7068 14.058H70.1058C70.6098 14.058 71.0688 13.968 71.4828 13.788C71.9148 13.59 72.2838 13.329 72.5898 13.005C72.9138 12.663 73.1568 12.276 73.3188 11.844C73.4988 11.394 73.5888 10.926 73.5888 10.44C73.5888 9.738 73.3998 9.09 73.0218 8.496C72.6438 7.884 72.1398 7.425 71.5098 7.119C72.0858 6.831 72.5178 6.426 72.8058 5.904C73.1118 5.364 73.2648 4.779 73.2648 4.149C73.2648 3.789 73.2108 3.447 73.1028 3.123C73.0128 2.781 72.8598 2.466 72.6438 2.178L75.3978 4.878C75.7398 5.22 75.9828 5.598 76.1268 6.012C76.2708 6.426 76.3428 6.867 76.3428 7.335C76.3428 7.911 76.1988 8.442 75.9108 8.928C75.6228 9.414 75.2358 9.801 74.7498 10.089C75.0378 10.377 75.2988 10.647 75.5328 10.899C75.7848 11.133 75.9918 11.385 76.1538 11.655C76.3158 11.907 76.4418 12.195 76.5318 12.519C76.6218 12.843 76.6668 13.221 76.6668 13.653ZM93.9367 7.362C93.9367 7.812 93.8557 8.235 93.6937 8.631C93.5317 9.009 93.3067 9.342 93.0187 9.63C92.7307 9.9 92.3887 10.116 91.9927 10.278C91.6147 10.44 91.2007 10.521 90.7507 10.521H89.9947L93.9367 17.136H93.1807C92.6587 16.632 92.1457 16.128 91.6417 15.624C91.1377 15.12 90.6247 14.607 90.1027 14.085H90.8857C90.2377 12.969 89.5717 11.871 88.8877 10.791C88.2217 9.693 87.5647 8.586 86.9167 7.47H87.6997C88.1677 7.47 88.5907 7.389 88.9687 7.227C89.3647 7.047 89.7067 6.813 89.9947 6.525C90.2827 6.219 90.4987 5.868 90.6427 5.472C90.8047 5.058 90.8857 4.626 90.8857 4.176C90.8857 3.438 90.6697 2.781 90.2377 2.205L92.9917 4.905C93.3517 5.247 93.5947 5.625 93.7207 6.039C93.8647 6.453 93.9367 6.894 93.9367 7.362ZM84.5407 4.581L81.4897 1.53H87.5647C88.3747 1.53 89.0137 1.8 89.4817 2.34C89.9677 2.862 90.2107 3.51 90.2107 4.284C90.2107 4.338 90.2017 4.392 90.1837 4.446C90.1837 4.5 90.1837 4.545 90.1837 4.581H84.5407ZM81.5437 7.497C82.1377 7.497 82.5967 7.497 82.9207 7.497C83.2627 7.479 83.5687 7.47 83.8387 7.47C84.1267 7.47 84.4327 7.47 84.7567 7.47C85.0987 7.47 85.5667 7.47 86.1607 7.47C86.4667 7.992 86.7727 8.505 87.0787 9.009C87.3847 9.513 87.6907 10.017 87.9967 10.521L84.6217 10.548V17.136H83.9467L80.8957 14.085H81.5437V7.497Z" fill="#FEFEFF"/>
</svg>
