<svg width="112" height="20" viewBox="0 0 112 20" fill="none" xmlns="http://www.w3.org/2000/svg">
<path d="M1.552 0.647999L5.168 4.296V19.976H4.4L0.784 16.36H1.552V0.647999ZM23.5535 0.647999L27.2015 4.296V19.976H26.4335L22.7855 16.328H23.5535V0.647999ZM11.3615 1.928L15.0095 6.536V19.976H14.2415L10.5935 16.328H11.3615V1.928ZM22.7855 14.12V15.08L11.3615 0.647999C12.5348 1.65067 13.6228 2.76 14.6255 3.976C15.6495 5.17067 16.6415 6.36533 17.6015 7.56L22.7855 14.12ZM39.0918 16.2C40.4571 16.2 41.7478 15.8693 42.9638 15.208C44.1798 14.5253 45.1291 13.5867 45.8118 12.392L49.4278 16.04C48.7451 17.2347 47.8064 18.1627 46.6118 18.824C45.4171 19.4853 44.1371 19.816 42.7718 19.816C41.7264 19.816 40.7878 19.6453 39.9558 19.304C39.1451 18.9627 38.3878 18.5147 37.6838 17.96C36.9798 17.4053 36.3078 16.7867 35.6678 16.104C35.0278 15.4213 34.3664 14.7387 33.6838 14.056C34.4091 14.7387 35.2411 15.272 36.1798 15.656C37.1184 16.0187 38.0891 16.2 39.0918 16.2ZM36.2438 14.824C34.9638 14.248 33.9398 13.384 33.1718 12.232C32.4038 11.0587 32.0198 9.768 32.0198 8.36C32.0198 7.4 32.2011 6.49333 32.5638 5.64C32.9478 4.78667 33.4491 4.04 34.0677 3.4C34.7078 2.76 35.4438 2.25867 36.2758 1.896C37.1291 1.512 38.0358 1.32 38.9958 1.32C40.1691 1.32 41.2678 1.58667 42.2918 2.12C43.3371 2.65333 44.2011 3.38933 44.8838 4.328H45.8118C45.6411 4.072 45.4704 3.82667 45.2998 3.592C45.1291 3.336 44.9371 3.10133 44.7238 2.888C45.5344 3.69867 46.3664 4.50933 47.2198 5.32C48.0731 6.13067 48.8091 7.016 49.4278 7.976H48.5318C48.0838 7.50667 47.6571 7.09067 47.2518 6.728C46.8464 6.344 46.4198 6.024 45.9718 5.768C45.5451 5.49067 45.0758 5.288 44.5638 5.16C44.0518 5.01067 43.4544 4.936 42.7718 4.936C41.7904 4.936 40.8624 5.11733 39.9878 5.48C39.1344 5.84267 38.3771 6.344 37.7158 6.984C37.0758 7.624 36.5638 8.38133 36.1798 9.256C35.8171 10.1093 35.6358 11.0267 35.6358 12.008C35.6358 12.9467 35.8384 13.8853 36.2438 14.824ZM70.243 4.296V13.768C70.243 14.7067 70.0617 15.56 69.699 16.328C69.3577 17.0747 68.899 17.7253 68.323 18.28C67.747 18.8133 67.075 19.2293 66.307 19.528C65.5603 19.8267 64.7923 19.976 64.003 19.976C63.2137 19.976 62.4243 19.8267 61.635 19.528C60.8457 19.208 60.131 18.7067 59.491 18.024L56.003 14.536C56.5577 15.112 57.2083 15.56 57.955 15.88C58.7017 16.1787 59.5123 16.328 60.387 16.328C61.2403 16.328 62.0403 16.168 62.787 15.848C63.555 15.5067 64.2163 15.0587 64.771 14.504C65.347 13.9493 65.795 13.2987 66.115 12.552C66.4563 11.784 66.627 10.9733 66.627 10.12V0.647999L70.243 4.296ZM58.787 15.336C58.2323 15.1653 57.7203 14.9093 57.251 14.568C56.7817 14.2267 56.3763 13.832 56.035 13.384C55.6937 12.936 55.427 12.4347 55.235 11.88C55.043 11.304 54.947 10.7173 54.947 10.12V0.647999L58.563 4.296V13.768C58.563 14.3227 58.6377 14.8453 58.787 15.336ZM79.5228 5.064L75.8748 1.448H83.2988C84.2588 1.448 85.0161 1.768 85.5708 2.408C86.1468 3.048 86.4348 3.82667 86.4348 4.744C86.4348 4.89333 86.4241 5 86.4028 5.064H79.5228ZM79.5228 12.168L75.8748 8.52C76.8561 8.52 77.8694 8.52 78.9148 8.52C79.9814 8.49867 81.0054 8.488 81.9868 8.488H83.2668C83.7788 8.488 84.2481 8.59467 84.6748 8.808C85.1228 9 85.4961 9.26667 85.7948 9.608C86.1148 9.928 86.3601 10.312 86.5308 10.76C86.7228 11.208 86.8188 11.6773 86.8188 12.168H79.5228ZM91.2348 15.848C91.2348 16.4027 91.1174 16.936 90.8828 17.448C90.6694 17.9387 90.3708 18.376 89.9868 18.76C89.6028 19.1227 89.1548 19.4213 88.6428 19.656C88.1521 19.8693 87.6294 19.976 87.0748 19.976H79.5228L75.8748 16.328H83.4588C84.0561 16.328 84.6001 16.2213 85.0908 16.008C85.6028 15.7733 86.0401 15.464 86.4028 15.08C86.7868 14.6747 87.0748 14.216 87.2668 13.704C87.4801 13.1707 87.5868 12.616 87.5868 12.04C87.5868 11.208 87.3628 10.44 86.9148 9.736C86.4668 9.01067 85.8694 8.46667 85.1228 8.104C85.8054 7.76267 86.3174 7.28267 86.6588 6.664C87.0214 6.024 87.2028 5.33067 87.2028 4.584C87.2028 4.15733 87.1388 3.752 87.0108 3.368C86.9041 2.96267 86.7228 2.58933 86.4668 2.248L89.7308 5.448C90.1361 5.85333 90.4241 6.30133 90.5948 6.792C90.7654 7.28267 90.8507 7.80533 90.8507 8.36C90.8507 9.04267 90.6801 9.672 90.3388 10.248C89.9974 10.824 89.5388 11.2827 88.9628 11.624C89.3041 11.9653 89.6134 12.2853 89.8908 12.584C90.1894 12.8613 90.4348 13.16 90.6268 13.48C90.8188 13.7787 90.9681 14.12 91.0748 14.504C91.1814 14.888 91.2348 15.336 91.2348 15.848ZM111.703 8.392C111.703 8.92533 111.607 9.42667 111.415 9.896C111.223 10.344 110.956 10.7387 110.615 11.08C110.273 11.4 109.868 11.656 109.399 11.848C108.951 12.04 108.46 12.136 107.927 12.136H107.031L111.703 19.976H110.807C110.188 19.3787 109.58 18.7813 108.983 18.184C108.385 17.5867 107.777 16.9787 107.159 16.36H108.087C107.319 15.0373 106.529 13.736 105.719 12.456C104.929 11.1547 104.151 9.84267 103.383 8.52H104.311C104.865 8.52 105.367 8.424 105.815 8.232C106.284 8.01867 106.689 7.74133 107.031 7.4C107.372 7.03733 107.628 6.62133 107.799 6.152C107.991 5.66133 108.087 5.14933 108.087 4.616C108.087 3.74133 107.831 2.96267 107.319 2.28L110.583 5.48C111.009 5.88533 111.297 6.33333 111.447 6.824C111.617 7.31467 111.703 7.83733 111.703 8.392ZM100.567 5.096L96.9508 1.48H104.151C105.111 1.48 105.868 1.8 106.423 2.44C106.999 3.05867 107.287 3.82667 107.287 4.744C107.287 4.808 107.276 4.872 107.255 4.936C107.255 5 107.255 5.05333 107.255 5.096H100.567ZM97.0148 8.552C97.7188 8.552 98.2628 8.552 98.6468 8.552C99.0521 8.53067 99.4148 8.52 99.7348 8.52C100.076 8.52 100.439 8.52 100.823 8.52C101.228 8.52 101.783 8.52 102.487 8.52C102.849 9.13867 103.212 9.74667 103.575 10.344C103.937 10.9413 104.3 11.5387 104.663 12.136L100.663 12.168V19.976H99.8628L96.2468 16.36H97.0148V8.552Z" fill="#1F1D1D"/>
</svg>
