<svg width="34" height="34" viewBox="0 0 34 34" fill="none" xmlns="http://www.w3.org/2000/svg">
<path fill-rule="evenodd" clip-rule="evenodd" d="M31.1468 31.1466C31.9994 30.2914 32.6689 29.2635 33.1056 28.1363C33.524 27.0535 33.8117 25.8191 33.8954 24.0092C33.9791 22.1968 34 21.6162 34 17C34 12.3838 33.9791 11.8032 33.8954 9.99077C33.8117 8.18092 33.524 6.94646 33.1056 5.86369C32.6786 4.72951 32.0092 3.70218 31.1442 2.85338C30.2954 1.98847 29.2682 1.31907 28.1341 0.891846C27.0515 0.473385 25.8171 0.185692 24.0074 0.102C22.1951 0.0183078 21.6145 0 16.9987 0C12.3829 0 11.8023 0.0183076 9.99 0.104615C8.18029 0.183077 6.94593 0.470769 5.86324 0.891846C4.72972 1.32005 3.7027 1.98932 2.85317 2.85338C1.98916 3.70298 1.31995 4.73008 0.891777 5.86369C0.473348 6.94646 0.185678 8.18092 0.101992 9.99077C0.0183064 11.8032 0 12.3838 0 17C0 21.6162 0.0183062 22.1968 0.104607 24.0092C0.183063 25.8191 0.470733 27.0535 0.891777 28.1363C1.32067 29.2714 1.99015 30.2966 2.85317 31.1466C3.7031 32.0097 4.73087 32.6792 5.86324 33.1082C6.94593 33.5266 8.18029 33.8143 9.99 33.898C11.8023 33.9791 12.3829 34 16.9987 34C21.6145 34 22.1951 33.9791 24.0074 33.8954C25.8171 33.8169 27.0515 33.5292 28.1341 33.1082C29.2632 32.6711 30.2884 32.003 31.1442 31.1466H31.1468ZM2.61518 14.9992V19.0008C2.60995 21.148 2.60995 21.7051 2.66749 22.9238C2.73548 24.4565 2.81917 25.5811 3.07546 26.4285C3.32128 27.2445 3.59588 28.0762 4.4955 29.0752C5.39512 30.0769 6.26075 30.5294 7.36436 30.8642C8.47058 31.1963 9.85924 31.2669 11.0648 31.3218C12.43 31.3846 12.9739 31.3846 15.8402 31.3846H18.9339C21.1359 31.3872 21.6903 31.3898 22.9247 31.3323C24.4546 31.2617 25.5791 31.178 26.429 30.9243C27.2424 30.6785 28.074 30.4012 29.073 29.5042C30.0746 28.6045 30.527 27.7362 30.8618 26.6325C31.1939 25.5288 31.2671 24.14 31.3221 22.9343C31.3822 21.5691 31.3822 21.0277 31.3822 18.1691V15.8414C31.3822 12.9749 31.3822 12.4335 31.3221 11.0657C31.2671 9.86 31.1939 8.47123 30.8618 7.36754C30.5296 6.26123 30.0772 5.39554 29.073 4.49585C28.0714 3.59615 27.2424 3.32154 26.429 3.07569C25.5791 2.822 24.4546 2.73569 22.9247 2.66769C21.5952 2.61305 20.2644 2.59561 18.9339 2.61538H15.8402C12.9739 2.61538 12.43 2.61538 11.0648 2.67554C9.85924 2.73046 8.47058 2.80369 7.36436 3.13585C6.26075 3.47062 5.39512 3.92308 4.4955 4.92477C3.59588 5.92646 3.31867 6.75554 3.07546 7.57154C2.81917 8.41892 2.73548 9.54354 2.66749 11.0762C2.60995 12.2949 2.60995 12.852 2.61518 14.9992ZM16.9987 11.1154C15.4381 11.1154 13.9415 11.7354 12.838 12.8389C11.7345 13.9425 11.1145 15.4393 11.1145 17C11.1145 18.5607 11.7345 20.0575 12.838 21.1611C13.9415 22.2646 15.4381 22.8846 16.9987 22.8846C18.5593 22.8846 20.0559 22.2646 21.1594 21.1611C22.2629 20.0575 22.8829 18.5607 22.8829 17C22.8829 15.4393 22.2629 13.9425 21.1594 12.8389C20.0559 11.7354 18.5593 11.1154 16.9987 11.1154ZM8.49935 17C8.49935 14.7457 9.39481 12.5837 10.9887 10.9896C12.5827 9.39553 14.7445 8.5 16.9987 8.5C19.2529 8.5 21.4147 9.39553 23.0086 10.9896C24.6026 12.5837 25.498 14.7457 25.498 17C25.498 19.2543 24.6026 21.4163 23.0086 23.0104C21.4147 24.6045 19.2529 25.5 16.9987 25.5C14.7445 25.5 12.5827 24.6045 10.9887 23.0104C9.39481 21.4163 8.49935 19.2543 8.49935 17ZM26.0734 9.88615C26.5936 9.88615 27.0925 9.67949 27.4603 9.31163C27.8281 8.94377 28.0348 8.44485 28.0348 7.92462C28.0348 7.40438 27.8281 6.90546 27.4603 6.5376C27.0925 6.16974 26.5936 5.96308 26.0734 5.96308C25.5532 5.96308 25.0543 6.16974 24.6865 6.5376C24.3186 6.90546 24.112 7.40438 24.112 7.92462C24.112 8.44485 24.3186 8.94377 24.6865 9.31163C25.0543 9.67949 25.5532 9.88615 26.0734 9.88615Z" fill="#1F1D1D"/>
</svg>
