<svg width="32" height="30" viewBox="0 0 32 30" fill="none" xmlns="http://www.w3.org/2000/svg">
<path fill-rule="evenodd" clip-rule="evenodd" d="M11.8864 10.4535H17.8288V13.2285C18.6848 11.6325 20.88 10.1985 24.1776 10.1985C30.4992 10.1985 32 13.3755 32 19.2045V30H25.6V20.532C25.6 17.2125 24.744 15.3405 22.5648 15.3405C19.5424 15.3405 18.2864 17.358 18.2864 20.5305V30H11.8864V10.4535ZM0.912 29.745H7.312V10.1985H0.912V29.745ZM8.2288 3.825C8.22904 4.32791 8.12265 4.82585 7.91582 5.28988C7.70899 5.75391 7.40584 6.17477 7.024 6.528C6.25024 7.24894 5.2029 7.65248 4.112 7.65C3.02302 7.64931 1.9781 7.2468 1.2032 6.5295C0.822738 6.17507 0.520617 5.75374 0.31415 5.28965C0.107682 4.82556 0.000926611 4.32784 0 3.825C0 2.8095 0.432 1.8375 1.2048 1.1205C1.97902 0.402238 3.02438 -0.000448816 4.1136 3.75397e-07C5.2048 3.75397e-07 6.2512 0.4035 7.024 1.1205C7.7952 1.8375 8.2288 2.8095 8.2288 3.825Z" fill="#222222"/>
</svg>
