<svg width="43" height="43" viewBox="0 0 43 43" fill="none" xmlns="http://www.w3.org/2000/svg">
<path fill-rule="evenodd" clip-rule="evenodd" d="M40.5607 1.0393C41.0163 1.04094 41.4527 1.22353 41.7737 1.54689C42.0948 1.87025 42.2742 2.30789 42.2726 2.76355L42.1983 23.3803C42.1967 23.836 42.0141 24.2723 41.6907 24.5934C41.3674 24.9144 40.9297 25.0938 40.4741 25.0922C40.0184 25.0906 39.5821 24.908 39.261 24.5846C38.94 24.2613 38.7605 23.8236 38.7622 23.3679L38.8215 6.89859L3.83297 41.6394C3.67266 41.7986 3.48256 41.9246 3.27354 42.0103C3.06452 42.096 2.84067 42.1397 2.61477 42.1389C2.38886 42.1381 2.16533 42.0928 1.95693 42.0056C1.74853 41.9184 1.55935 41.791 1.40019 41.6307C1.24103 41.4703 1.115 41.2803 1.0293 41.0712C0.943603 40.8622 0.899913 40.6384 0.900727 40.4125C0.90154 40.1866 0.946841 39.963 1.03404 39.7546C1.12124 39.5462 1.24864 39.357 1.40895 39.1979L36.4009 4.46049L19.9315 4.40118C19.4759 4.39954 19.0395 4.21696 18.7185 3.8936C18.3975 3.57024 18.218 3.13259 18.2197 2.67693C18.2213 2.22127 18.4039 1.78492 18.7272 1.46389C19.0506 1.14285 19.4883 0.963411 19.9439 0.965052L40.5607 1.0393Z" fill="#F8F8F8"/>
</svg>
