<svg width="31" height="31" viewBox="0 0 31 31" fill="none" xmlns="http://www.w3.org/2000/svg">
<path fill-rule="evenodd" clip-rule="evenodd" d="M25.9049 5.15367C24.5535 3.79336 22.9455 2.71474 21.1743 1.98029C19.403 1.24584 17.5036 0.870173 15.5861 0.875047C7.54563 0.875047 1.00013 7.41892 0.996875 15.4627C0.996875 18.0334 1.668 20.5424 2.94362 22.7557L0.875 30.3135L8.60837 28.2839C10.7475 29.4484 13.1441 30.059 15.5796 30.06H15.5861C23.625 30.06 30.1705 23.5162 30.1738 15.4724C30.1793 13.5557 29.8049 11.6569 29.0721 9.88577C28.3394 8.11463 27.2629 6.50628 25.9049 5.15367ZM15.5861 27.5982H15.5813C13.4095 27.5984 11.2777 27.0141 9.4095 25.9065L8.9675 25.6433L4.3785 26.8474L5.60212 22.3738L5.3145 21.9155C4.10028 19.9825 3.4575 17.7454 3.46038 15.4627C3.46363 8.77742 8.9025 3.33855 15.591 3.33855C17.1839 3.33501 18.7617 3.64743 20.2331 4.25773C21.7044 4.86803 23.0401 5.76409 24.1629 6.89405C25.2916 8.01862 26.1863 9.35575 26.7952 10.8282C27.4041 12.3006 27.7151 13.8791 27.7103 15.4724C27.707 22.1577 22.2681 27.5982 15.5861 27.5982ZM22.2372 18.516C21.8716 18.3324 20.0809 17.4517 19.7461 17.3298C19.413 17.2079 19.1709 17.1478 18.9271 17.5118C18.6834 17.8758 17.9846 18.6964 17.7717 18.9402C17.5589 19.1839 17.346 19.2132 16.982 19.0312C16.618 18.8492 15.4431 18.464 14.0505 17.2225C12.9666 16.2557 12.2354 15.0629 12.0225 14.6973C11.8096 14.3317 11.9997 14.135 12.1834 13.953C12.3475 13.7905 12.5474 13.5273 12.7294 13.3144C12.9114 13.1015 12.9715 12.9504 13.0934 12.7067C13.2153 12.4629 13.1551 12.25 13.0625 12.068C12.9715 11.8844 12.2419 10.0904 11.938 9.3608C11.6439 8.65392 11.3433 8.74817 11.119 8.73842C10.8868 8.72892 10.6543 8.72459 10.4219 8.72542C10.237 8.73013 10.0552 8.77298 9.88767 8.85127C9.72018 8.92957 9.57066 9.04163 9.4485 9.18042C9.11375 9.54605 8.17288 10.4268 8.17288 12.2208C8.17288 14.0148 9.47937 15.7487 9.66137 15.9924C9.84337 16.2362 12.2321 19.9168 15.8884 21.4963C16.7594 21.8717 17.4386 22.0959 17.9667 22.2649C18.8394 22.5428 19.634 22.5022 20.2629 22.4095C20.9632 22.3055 22.4192 21.5288 22.7231 20.6773C23.027 19.8258 23.027 19.0962 22.936 18.9434C22.845 18.7907 22.5996 18.698 22.2372 18.516Z" fill="#F8F8F8"/>
</svg>
