<svg width="31" height="31" viewBox="0 0 31 31" fill="none" xmlns="http://www.w3.org/2000/svg">
<path fill-rule="evenodd" clip-rule="evenodd" d="M28.3986 28.3984C29.1759 27.6186 29.7863 26.6815 30.1845 25.6537C30.566 24.6665 30.8283 23.5409 30.9046 21.8908C30.9809 20.2382 31 19.7088 31 15.5C31 11.2912 30.9809 10.7618 30.9046 9.10923C30.8283 7.45908 30.566 6.33354 30.1845 5.34631C29.7952 4.3122 29.1849 3.37552 28.3962 2.60162C27.6223 1.81302 26.6857 1.20269 25.6517 0.813154C24.6646 0.431615 23.5391 0.169308 21.8891 0.0930001C20.2367 0.0166924 19.7073 0 15.4988 0C11.2903 0 10.7609 0.0166922 9.10853 0.0953845C7.4585 0.166923 6.33305 0.429231 5.3459 0.813154C4.31239 1.20357 3.37599 1.81379 2.60142 2.60162C1.81365 3.37625 1.20348 4.31272 0.813091 5.34631C0.431582 6.33354 0.169295 7.45908 0.0929929 9.10923C0.0166911 10.7618 0 11.2912 0 15.5C0 19.7088 0.0166909 20.2382 0.0953772 21.8908C0.16691 23.5409 0.429198 24.6665 0.813091 25.6537C1.20414 26.6886 1.81455 27.6234 2.60142 28.3984C3.37636 29.1853 4.31344 29.7958 5.3459 30.1868C6.33305 30.5684 7.4585 30.8307 9.10853 30.907C10.7609 30.9809 11.2903 31 15.4988 31C19.7073 31 20.2367 30.9809 21.8891 30.9046C23.5391 30.8331 24.6646 30.5708 25.6517 30.1868C26.6811 29.7884 27.6159 29.1792 28.3962 28.3984H28.3986ZM2.38443 13.6758V17.3242C2.37966 19.282 2.37966 19.7899 2.43212 20.9012C2.49412 22.2985 2.57042 23.3239 2.80409 24.0965C3.02823 24.8405 3.27859 25.5988 4.09884 26.5098C4.91908 27.4231 5.70833 27.8356 6.71456 28.1408C7.72317 28.4437 8.98931 28.5081 10.0885 28.5582C11.3332 28.6154 11.8292 28.6154 14.4425 28.6154H17.2633C19.271 28.6178 19.7765 28.6202 20.9019 28.5677C22.2968 28.5033 23.3221 28.427 24.0971 28.1957C24.8386 27.9715 25.5969 27.7188 26.5077 26.9008C27.421 26.0805 27.8335 25.2888 28.1387 24.2825C28.4415 23.2762 28.5083 22.01 28.5583 20.9107C28.6132 19.6659 28.6132 19.1723 28.6132 16.5659V14.4436C28.6132 11.8301 28.6132 11.3365 28.5583 10.0893C28.5083 8.99 28.4415 7.72377 28.1387 6.71746C27.8359 5.70877 27.4233 4.91946 26.5077 4.09915C25.5945 3.27885 24.8386 3.02846 24.0971 2.80431C23.3221 2.573 22.2968 2.49431 20.9019 2.43231C19.6897 2.38249 18.4764 2.36659 17.2633 2.38462H14.4425C11.8292 2.38462 11.3332 2.38462 10.0885 2.43946C8.98931 2.48954 7.72317 2.55631 6.71456 2.85915C5.70833 3.16438 4.91908 3.57692 4.09884 4.49023C3.27859 5.40354 3.02584 6.15946 2.80409 6.90346C2.57042 7.67608 2.49412 8.70146 2.43212 10.0988C2.37966 11.2101 2.37966 11.718 2.38443 13.6758ZM15.4988 10.1346C14.0759 10.1346 12.7113 10.6999 11.7052 11.7061C10.6991 12.7123 10.1338 14.077 10.1338 15.5C10.1338 16.923 10.6991 18.2877 11.7052 19.2939C12.7113 20.3001 14.0759 20.8654 15.4988 20.8654C16.9217 20.8654 18.2863 20.3001 19.2924 19.2939C20.2985 18.2877 20.8638 16.923 20.8638 15.5C20.8638 14.077 20.2985 12.7123 19.2924 11.7061C18.2863 10.6999 16.9217 10.1346 15.4988 10.1346ZM7.7494 15.5C7.7494 13.4446 8.56586 11.4733 10.0192 10.0199C11.4724 8.56651 13.4435 7.75 15.4988 7.75C17.5541 7.75 19.5252 8.56651 20.9785 10.0199C22.4318 11.4733 23.2482 13.4446 23.2482 15.5C23.2482 17.5554 22.4318 19.5267 20.9785 20.9801C19.5252 22.4335 17.5541 23.25 15.4988 23.25C13.4435 23.25 11.4724 22.4335 10.0192 20.9801C8.56586 19.5267 7.7494 17.5554 7.7494 15.5ZM23.7728 9.01385C24.2471 9.01385 24.7019 8.82542 25.0373 8.49002C25.3727 8.15462 25.5611 7.69971 25.5611 7.22539C25.5611 6.75106 25.3727 6.29615 25.0373 5.96075C24.7019 5.62535 24.2471 5.43692 23.7728 5.43692C23.2985 5.43692 22.8436 5.62535 22.5082 5.96075C22.1729 6.29615 21.9845 6.75106 21.9845 7.22539C21.9845 7.69971 22.1729 8.15462 22.5082 8.49002C22.8436 8.82542 23.2985 9.01385 23.7728 9.01385Z" fill="#F8F8F8"/>
</svg>
